<svg width="94" height="22" viewBox="0 0 94 22" fill="none" xmlns="http://www.w3.org/2000/svg">
<path d="M13.9551 9.51102C13.9551 9.0015 13.889 8.58634 13.7569 8.26553C13.9457 7.98247 14.2382 7.75602 14.6344 7.58618C15.0496 7.39747 15.4365 7.30311 15.795 7.30311C16.1724 7.30311 16.5027 7.35973 16.7857 7.47295C17.7482 7.94473 18.2294 8.79392 18.2294 10.0205C18.2294 13.2852 17.1065 16.1064 14.8609 18.4842C15.4082 19.0692 15.9177 19.3617 16.3894 19.3617C17.182 19.3617 17.5783 18.9748 17.5783 18.2011C17.5783 17.9935 17.55 17.7765 17.4934 17.55C18.3803 17.9652 18.8238 18.588 18.8238 19.4183C18.8238 20.2297 18.5596 20.8336 18.0312 21.2299C17.5028 21.6262 16.8707 21.8243 16.1347 21.8243C15.0402 21.8243 13.9928 21.2299 12.9927 20.041C11.2754 21.1544 9.45436 21.7111 7.52953 21.7111C5.09517 21.7111 3.22694 20.9185 1.92485 19.3334C0.641622 17.7482 8.98563e-06 15.6818 8.98563e-06 13.1342C8.98563e-06 11.4736 0.254767 9.86013 0.764283 8.29384C1.2738 6.70868 1.97203 5.30279 2.85896 4.07618C3.76477 2.84956 4.89703 1.86827 6.25574 1.13231C7.61445 0.377467 9.02977 4.74434e-05 10.5017 4.74434e-05C11.9925 4.74434e-05 13.2097 0.339725 14.1532 1.01908C15.1157 1.67956 15.5969 2.60424 15.5969 3.79311C15.5969 4.69892 15.2761 5.51037 14.6344 6.22747C14.0117 6.92569 13.1436 7.27481 12.0303 7.27481C11.4453 7.27481 10.9263 7.13327 10.4734 6.85021C10.0205 6.54827 9.79404 6.0765 9.79404 5.43489C9.79404 5.13295 9.86953 4.86876 10.0205 4.64231C10.1715 4.41585 10.3224 4.27432 10.4734 4.21771L10.7282 4.10448C10.7282 4.85932 11.0301 5.23674 11.634 5.23674C11.917 5.23674 12.1623 5.14239 12.3699 4.95368C12.5775 4.7461 12.6907 4.51965 12.7096 4.27432C12.7285 4.029 12.719 3.84029 12.6813 3.70819C12.6436 3.55723 12.5681 3.38739 12.4548 3.19868C12.1907 2.7269 11.634 2.49102 10.7848 2.49102C9.67138 2.49102 8.61461 3.0194 7.61445 4.07618C6.61428 5.13295 5.81227 6.49166 5.2084 8.15231C4.6234 9.81295 4.3309 11.5113 4.3309 13.2475C4.3309 14.7005 4.56678 15.9932 5.03856 17.1255C5.30275 17.7293 5.68961 18.2105 6.19912 18.5691C6.70864 18.9088 7.32195 19.0786 8.03904 19.0786C9.22791 19.0786 10.2847 18.5691 11.2094 17.55C10.2092 16.0215 9.36001 15.2572 8.66178 15.2572C8.56743 15.2572 8.32211 15.3233 7.92582 15.4554L8.35041 13.9551C8.72783 13.6343 9.1713 13.4739 9.68082 13.4739C10.6055 13.4739 11.5868 14.1344 12.6247 15.4554C13.5116 13.6438 13.9551 11.6623 13.9551 9.51102ZM32.7652 8.20892C31.9915 14.3231 31.6046 17.5784 31.6046 17.9746C31.6046 18.7295 31.8782 19.1069 32.4255 19.1069C32.9161 19.1069 33.4445 18.7767 34.0107 18.1162C34.5957 17.4368 35.058 16.4272 35.3977 15.0874C36.0204 15.7667 36.3978 16.2951 36.5299 16.6725C36.0959 18.503 35.4071 19.7957 34.4636 20.5505C33.52 21.3054 32.5482 21.6828 31.548 21.6828C29.9062 21.6828 28.8023 21.0506 28.2361 19.7863C27.2548 21.0506 25.9433 21.6828 24.3015 21.6828C22.9428 21.6828 21.8955 21.3431 21.1595 20.6638C20.4236 19.9844 20.0556 19.0975 20.0556 18.003C20.0556 17.7388 20.1028 17.2764 20.1971 16.6159C20.6311 13.1059 20.9614 10.313 21.1878 8.23723C21.7728 8.02964 22.3107 7.92585 22.8013 7.92585C23.2919 7.92585 23.6599 7.94473 23.9053 7.98247C24.1506 8.02021 24.3865 8.16174 24.6129 8.40706C24.8394 8.65239 24.9526 9.0015 24.9526 9.4544L24.0185 16.6725C23.9807 16.899 23.9619 17.1066 23.9619 17.2953C23.9619 18.4087 24.4714 18.9654 25.4904 18.9654C26.434 18.9654 27.2171 18.503 27.8398 17.5784C27.8398 17.3708 27.8587 17.0405 27.8965 16.5876L28.8306 9.05811C28.9627 8.73731 29.2457 8.47311 29.6798 8.26553C30.1138 8.03908 30.6516 7.92585 31.2932 7.92585C31.9537 7.92585 32.4444 8.02021 32.7652 8.20892ZM36.6385 0.707708C37.0725 0.254805 37.6009 0.0283535 38.2237 0.0283535C38.8464 0.0283535 39.3748 0.254805 39.8088 0.707708C40.2617 1.14174 40.4882 1.67013 40.4882 2.29287C40.4882 2.91561 40.2617 3.444 39.8088 3.87803C39.3748 4.31206 38.8464 4.52908 38.2237 4.52908C37.6009 4.52908 37.0725 4.31206 36.6385 3.87803C36.2045 3.444 35.9875 2.91561 35.9875 2.29287C35.9875 1.67013 36.2045 1.14174 36.6385 0.707708ZM35.4779 9.0015C35.6667 8.66182 36.0252 8.40706 36.5536 8.23723C37.082 8.04852 37.6009 7.95416 38.1104 7.95416C38.6388 7.95416 39.1012 8.02021 39.4975 8.15231C38.7615 13.8325 38.3935 16.7009 38.3935 16.7575C38.2992 17.1349 38.252 17.4557 38.252 17.7199C38.252 17.9652 38.2709 18.1822 38.3086 18.3709C38.3841 18.8616 38.7238 19.1069 39.3276 19.1069C39.9504 19.1069 40.5165 18.7106 41.026 17.918C41.5544 17.1066 41.9507 16.1913 42.2149 15.1723C42.347 15.2478 42.5546 15.4742 42.8376 15.8517C43.1207 16.2291 43.2905 16.5121 43.3471 16.7009C42.9697 18.2105 42.3281 19.4277 41.4223 20.3524C40.5165 21.2771 39.4314 21.7394 38.1671 21.7394C36.9027 21.7394 35.9592 21.428 35.3364 20.8053C34.7325 20.1825 34.4306 19.3805 34.4306 18.3992C34.4306 18.1917 34.44 17.9746 34.4589 17.7482L35.4779 9.0015ZM49.3324 7.89755C50.6911 7.89755 51.8611 8.45424 52.8424 9.56763C53.8237 10.681 54.3143 11.9831 54.3143 13.4739C54.3143 13.6815 54.3049 13.8985 54.286 14.125C54.0785 16.5971 53.2481 18.4842 51.7951 19.7863C50.342 21.0695 48.4455 21.7111 46.1055 21.7111C45.1619 21.6734 44.341 21.5035 43.6428 21.2016C42.9446 20.8996 42.4256 20.5222 42.086 20.0693C41.4443 19.239 41.1235 18.503 41.1235 17.8614C41.1235 17.2009 41.2179 16.1442 41.4066 14.6911C41.8029 11.7095 42.369 6.88795 43.105 0.2265C43.5013 0.0755315 44.0297 4.74434e-05 44.6901 4.74434e-05C46.1998 4.74434e-05 46.9547 0.43408 46.9547 1.30214L45.9922 8.83166C46.8792 8.20892 47.9926 7.89755 49.3324 7.89755ZM44.9449 17.6633C44.9449 18.0973 45.1053 18.4653 45.4261 18.7672C45.7658 19.0503 46.2281 19.1918 46.8131 19.1918C47.7756 19.1918 48.5681 18.7484 49.1909 17.8614C49.9457 16.7858 50.3231 15.3893 50.3231 13.6721C50.3231 12.8417 50.1344 12.1058 49.757 11.4642C49.3796 10.8225 48.7946 10.5017 48.002 10.5017C46.9264 10.5017 46.1055 11.1434 45.5393 12.4266L45.3129 14.125C45.0676 16.0309 44.9449 17.2104 44.9449 17.6633ZM60.7886 15.2006C61.9586 14.9553 62.8266 14.4835 63.3928 13.7853C63.9778 13.0871 64.2703 12.4171 64.2703 11.7755C64.2703 11.115 64.091 10.6716 63.7324 10.4451C63.3928 10.1998 63.0153 10.0771 62.6002 10.0771C61.7132 10.0771 60.9301 10.5772 60.2507 11.5774C59.5903 12.5587 59.26 13.7381 59.26 15.1157C59.26 16.4744 59.5808 17.4934 60.2224 18.1728C60.8829 18.8333 61.6944 19.1635 62.6568 19.1635C64.0721 19.1635 65.4308 18.6729 66.7329 17.6916C68.035 16.7103 69.0918 15.4271 69.9032 13.8419C70.3184 14.2382 70.6958 14.7288 71.0355 15.3138C70.4128 16.7292 69.3088 18.1162 67.7236 19.4749C66.9311 20.1354 65.9875 20.6732 64.893 21.0884C63.8174 21.5035 62.704 21.7111 61.5528 21.7111C59.6657 21.7111 58.1749 21.1355 57.0804 19.9844C55.9104 18.7389 55.3254 17.1443 55.3254 15.2006C55.3254 13.2569 56.0519 11.5585 57.505 10.1055C58.9769 8.65239 60.7319 7.92585 62.77 7.92585C64.2231 7.92585 65.4025 8.24666 66.3083 8.88827C67.2141 9.51102 67.6765 10.3602 67.6953 11.4359C67.6953 12.8889 67.1103 14.0684 65.9403 14.9742C64.7892 15.88 63.204 16.5121 61.1849 16.8707L60.7886 15.2006ZM73.9743 15.2006C75.1443 14.9553 76.0123 14.4835 76.5785 13.7853C77.1635 13.0871 77.456 12.4171 77.456 11.7755C77.456 11.115 77.2767 10.6716 76.9182 10.4451C76.5785 10.1998 76.2011 10.0771 75.7859 10.0771C74.899 10.0771 74.1158 10.5772 73.4365 11.5774C72.776 12.5587 72.4457 13.7381 72.4457 15.1157C72.4457 16.4744 72.7665 17.4934 73.4082 18.1728C74.0686 18.8333 74.8801 19.1635 75.8425 19.1635C77.2578 19.1635 78.6165 18.6729 79.9186 17.6916C81.2207 16.7103 82.2775 15.4271 83.089 13.8419C83.5041 14.2382 83.8815 14.7288 84.2212 15.3138C83.5985 16.7292 82.4945 18.1162 80.9094 19.4749C80.1168 20.1354 79.1732 20.6732 78.0787 21.0884C77.0031 21.5035 75.8897 21.7111 74.7386 21.7111C72.8515 21.7111 71.3607 21.1355 70.2661 19.9844C69.0961 18.7389 68.5111 17.1443 68.5111 15.2006C68.5111 13.2569 69.2377 11.5585 70.6907 10.1055C72.1627 8.65239 73.9177 7.92585 75.9557 7.92585C77.4088 7.92585 78.5882 8.24666 79.494 8.88827C80.3998 9.51102 80.8622 10.3602 80.8811 11.4359C80.8811 12.8889 80.2961 14.0684 79.1261 14.9742C77.9749 15.88 76.3898 16.5121 74.3706 16.8707L73.9743 15.2006ZM89.7642 21.796L81.895 21.6262C81.6497 21.6262 81.527 21.2959 81.527 20.6355C81.527 19.9561 81.6686 19.4277 81.9516 19.0503C82.2347 18.2955 83.0178 17.1915 84.3011 15.7384C84.7162 15.2667 85.4899 14.4175 86.6222 13.1909C87.7544 11.9642 88.4998 11.1245 88.8584 10.6716L87.3582 10.5867C87.0751 11.266 86.6599 11.8227 86.1127 12.2567C85.5843 12.6719 84.9898 12.8795 84.3294 12.8795C83.5745 12.8795 82.9612 12.6625 82.4894 12.2284C82.0177 11.7755 81.7818 11.1528 81.7818 10.3602C81.7818 9.56763 82.0554 8.93545 82.6027 8.46368C83.1499 7.9919 83.9048 7.75602 84.8672 7.75602L92.7364 7.92585C92.9817 7.92585 93.1044 8.24666 93.1044 8.88827C93.1044 9.54876 92.9817 10.0583 92.7364 10.4168C92.5099 10.832 92.1797 11.2755 91.7457 11.7472C91.3305 12.2001 90.7172 12.8134 89.9057 13.5871C89.0943 14.342 88.5282 14.8798 88.2073 15.2006C86.943 16.465 85.9994 17.6821 85.3767 18.8521L87.2732 18.9654C87.5563 18.286 87.962 17.7388 88.4904 17.3236C89.0377 16.8896 89.6415 16.6725 90.302 16.6725C91.0569 16.6725 91.6702 16.899 92.1419 17.3519C92.6137 17.7859 92.8496 18.3992 92.8496 19.1918C92.8496 19.9844 92.576 20.6166 92.0287 21.0884C91.4815 21.5601 90.7266 21.796 89.7642 21.796ZM84.6407 10.3885C83.9802 10.3885 83.65 10.6055 83.65 11.0396C83.65 11.4736 83.8953 11.6906 84.386 11.6906C85.1219 11.6906 85.7069 11.2943 86.141 10.5017L84.9804 10.4168C84.8672 10.398 84.754 10.3885 84.6407 10.3885ZM89.9907 19.1635C90.6511 19.1635 90.9814 18.9465 90.9814 18.5125C90.9814 18.0784 90.7361 17.8614 90.2454 17.8614C89.5094 17.8614 88.9244 18.2577 88.4904 19.0503L89.651 19.1352C89.7642 19.1541 89.8774 19.1635 89.9907 19.1635Z" fill="white"/>
</svg>
